<?xml version="1.0" encoding="UTF-8"?>
<svg width="492.11018px" height="512px" viewBox="0 0 492.11018 512" version="1.1" xmlns="http://www.w3.org/2000/svg" xmlns:xlink="http://www.w3.org/1999/xlink">
    <title>woot-log</title>
    <g id="Page-1" stroke="none" stroke-width="1" fill="none" fill-rule="evenodd">
        <g id="woot-log" fill-rule="nonzero">
            <path d="M41.00908,0 C18.35888,0 0,19.0876 0,42.6546 L0,512 L116.95918,398.207 L451.10118,398.207 C473.73718,398.207 492.11018,379.103 492.11018,355.55 L492.11018,42.6546 C492.11018,19.0876 473.73718,0 451.10118,0 L41.00908,0 Z" id="Path" fill="#8A5CF6"></path>
            <path d="M146.09918,181.167 C163.77718,181.167 178.10818,195.603 178.10818,213.412 C178.10818,231.218 163.77718,245.654 146.09918,245.654 C128.42318,245.654 114.09218,231.218 114.09218,213.412 C114.09218,195.603 128.42318,181.167 146.09918,181.167 Z" id="Path" fill="#FFFFFF"></path>
            <path d="M361.94818,181.771 C379.62418,181.771 393.95518,196.207 393.95518,214.016 C393.95518,231.822 379.62418,246.258 361.94818,246.258 C344.27118,246.258 329.94118,231.822 329.94118,214.016 C329.94118,196.207 344.27118,181.771 361.94818,181.771 Z" id="Path" fill="#FFFFFF"></path>
            <path d="M253.99118,182.577 C271.66718,182.577 285.99818,197.013 285.99818,214.822 C285.99818,232.63 271.66718,247.064 253.99118,247.064 C236.31318,247.064 221.98418,232.63 221.98418,214.822 C221.98418,197.013 236.31318,182.577 253.99118,182.577 Z" id="Path" fill="#FFFFFF"></path>
        </g>
    </g>
</svg>