<?xml version="1.0" encoding="UTF-8" standalone="no"?>
<!DOCTYPE svg PUBLIC "-//W3C//DTD SVG 1.1//EN" "http://www.w3.org/Graphics/SVG/1.1/DTD/svg11.dtd">
<svg width="2565px" height="487px" version="1.1"
    xmlns="http://www.w3.org/2000/svg"
    xmlns:xlink="http://www.w3.org/1999/xlink" xml:space="preserve"
    xmlns:serif="http://www.serif.com/" style="fill-rule:evenodd;clip-rule:evenodd;stroke-linejoin:round;stroke-miterlimit:2;">
    <g transform="matrix(1,0,0,1,0,0.97561)">
        <g id="Page-1">
            <g id="logo">
                <g id="woot-log" transform="matrix(0.912871,0,0,0.997921,0,5.02439)">
                    <path id="Shape" d="M42.082,0C18.84,0 0,17.93 0,40.072L0,481L120.023,374.097L462.916,374.097C486.146,374.097 505,356.151 505,334.023L505,40.072C505,17.93 486.146,0 462.916,0L42.082,0ZM149.999,170C168.225,170 183,183.655 183,200.501C183,217.345 168.225,231 149.999,231C131.775,231 117,217.345 117,200.501C117,183.655 131.775,170 149.999,170ZM371.001,171C389.224,171 404,184.655 404,201.501C404,218.345 389.224,232 371.001,232C352.774,232 338,218.345 338,201.501C338,184.655 352.774,171 371.001,171ZM259.999,171C278.224,171 293,184.656 293,201.5C293,218.346 278.224,232 259.999,232C241.774,232 227,218.346 227,201.5C227,184.656 241.774,171 259.999,171Z" style="fill:rgb(137,92,246);fill-rule:nonzero;"/>
                </g>
                <path id="Shape1" serif:id="Shape" d="M616,7.024L616,384.024L786.847,384.024C878.243,384.024 939,352.304 939,268.064C939,222.304 914.074,195.784 879.281,183.304C907.842,165.624 923.941,139.104 923.941,104.784C923.941,26.264 862.664,7.024 780.096,7.024L616,7.024ZM706,157.024L706,82.024L783.975,82.024C814.443,82.024 832,95.894 832,119.011C832,142.127 814.443,157.024 783.975,157.024L706,157.024ZM706,308.024L706,223.024L788.963,223.024C826.815,223.024 846,239.091 846,265.524C846,291.957 826.815,308.024 788.963,308.024L706,308.024Z" style="fill:white;fill-rule:nonzero;"/>
                <path id="Path" d="M1076.15,383.24L1076.15,6.24L987.233,6.24L987.233,383.24L1076.15,383.24Z" style="fill:white;fill-rule:nonzero;"/>
                <path id="Path1" serif:id="Path" d="M1233.19,84.24L1233.19,383.24L1322.63,383.24L1322.63,84.24L1443.79,84.24L1443.79,6.24L1112.55,6.24L1112.55,84.24L1233.19,84.24Z" style="fill:white;fill-rule:nonzero;"/>
                <path id="Path2" serif:id="Path" d="M1813.51,242.84L1726.15,242.84C1715.75,300.04 1673.11,316.68 1634.63,316.68C1580.55,316.68 1539.47,274.04 1539.47,194.48C1539.47,117.52 1580.55,73.32 1633.59,73.32C1675.71,73.32 1713.67,95.68 1723.55,147.16L1810.91,147.16C1797.91,61.36 1731.35,0 1636.71,0C1519.19,0 1445.35,75.4 1445.35,194.48C1445.35,315.12 1516.59,390 1634.11,390C1729.27,390 1799.99,330.2 1813.51,242.84Z" style="fill:white;fill-rule:nonzero;"/>
                <path id="Shape2" serif:id="Shape" d="M1982.73,7.024L1858,7.024L1858,384.024L1982.73,384.024C2106.41,384.024 2204,339.304 2204,195.264C2204,51.744 2106.41,7.024 1982.73,7.024ZM1982.98,82.024C2048.62,82.024 2108,96.05 2108,195.265C2108,294.999 2048.62,309.024 1982.98,309.024L1946,309.024L1946,82.024L1982.98,82.024Z" style="fill:white;fill-rule:nonzero;"/>
                <path id="Shape3" serif:id="Shape" d="M2393.47,7.024L2248,7.024L2248,384.024L2337.16,384.024L2337.16,253.504L2393.47,253.504C2491.49,253.504 2565,229.064 2565,129.744C2565,30.944 2491.49,7.024 2393.47,7.024ZM2338,80.024L2396.27,80.024C2437.52,80.024 2470,88.454 2470,128.498C2470,169.067 2437.52,178.024 2396.27,178.024L2338,178.024L2338,80.024Z" style="fill:white;fill-rule:nonzero;"/>
            </g>
        </g>
    </g>
</svg>