<?xml version="1.0" encoding="UTF-8" standalone="no"?>
<!DOCTYPE svg PUBLIC "-//W3C//DTD SVG 1.1//EN" "http://www.w3.org/Graphics/SVG/1.1/DTD/svg11.dtd">
<!-- Created with Vectornator (http://vectornator.io/) -->
<svg height="100%" stroke-miterlimit="10" style="fill-rule:nonzero;clip-rule:evenodd;stroke-linecap:round;stroke-linejoin:round;" version="1.1" viewBox="0 0 1844 512" width="100%" xml:space="preserve" xmlns="http://www.w3.org/2000/svg" xmlns:vectornator="http://vectornator.io" xmlns:xlink="http://www.w3.org/1999/xlink">
<defs/>
<g id="Logo" vectornator:layerName="Logo">
<g opacity="1" vectornator:layerName="Logo">
<g opacity="1" vectornator:layerName="Widget">
<path d="M0 256C0 114.615 114.615 0 256 0C397.385 0 512 114.615 512 256C512 397.385 397.385 512 256 512C114.615 512 0 397.385 0 256Z" fill="#895cf6" fill-rule="nonzero" opacity="1" stroke="none" vectornator:layerName="path"/>
<path d="M152.454 136.724C141.016 136.724 131.745 146.363 131.745 158.264L131.745 395.277L190.808 337.813L359.545 337.813C370.976 337.813 380.254 328.166 380.254 316.272L380.254 158.264C380.254 146.363 370.976 136.724 359.545 136.724L152.454 136.724ZM205.523 228.211C214.45 228.211 221.687 235.501 221.687 244.494C221.687 253.486 214.45 260.776 205.523 260.776C196.597 260.776 189.36 253.486 189.36 244.494C189.36 235.501 196.597 228.211 205.523 228.211ZM314.524 228.516C323.45 228.516 330.687 235.806 330.687 244.799C330.687 253.791 323.45 261.081 314.524 261.081C305.597 261.081 298.361 253.791 298.361 244.799C298.361 235.806 305.597 228.516 314.524 228.516ZM260.007 228.923C268.933 228.923 276.17 236.213 276.17 245.206C276.17 254.199 268.933 261.488 260.007 261.488C251.08 261.488 243.844 254.199 243.844 245.206C243.844 236.213 251.08 228.923 260.007 228.923Z" fill="#ffffff" fill-rule="nonzero" opacity="1" stroke="none" vectornator:layerName="path"/>
</g>
<g fill="#333333" opacity="1" stroke="none">
<path d="M631.456 365.5L715.084 365.5C765.794 365.5 788.698 340.252 788.698 306.8C788.698 273.029 765.048 253.96 743.422 252.788L743.422 250.658C763.45 245.544 780.175 231.908 780.175 204.635C780.175 172.356 757.804 147.321 711.355 147.321L631.456 147.321L631.456 365.5ZM664.374 337.269L664.374 267.383L713.06 267.383C739.48 267.383 755.992 284.428 755.992 305.202C755.992 323.526 743.528 337.269 711.888 337.269L664.374 337.269ZM664.374 241.709L664.374 175.339L709.331 175.339C735.432 175.339 747.896 189.082 747.896 207.192C747.896 228.286 730.638 241.709 708.479 241.709L664.374 241.709Z"/>
<path d="M860.61 147.321L827.691 147.321L827.691 365.5L860.61 365.5L860.61 147.321Z"/>
<path d="M897.791 175.658L965.759 175.658L965.759 365.5L998.571 365.5L998.571 175.658L1066.65 175.658L1066.65 147.321L897.791 147.321L897.791 175.658Z"/>
<path d="M1275.88 218.272C1268.42 171.61 1231.88 144.338 1185.75 144.338C1129.29 144.338 1087.63 186.631 1087.63 256.41C1087.63 326.189 1129.08 368.483 1185.75 368.483C1233.69 368.483 1268.74 338.441 1275.88 295.295L1242.64 295.188C1236.99 323.1 1213.56 338.441 1185.96 338.441C1148.57 338.441 1120.34 309.783 1120.34 256.41C1120.34 203.464 1148.46 174.38 1186.07 174.38C1213.88 174.38 1237.21 190.04 1242.64 218.272L1275.88 218.272Z"/>
<path d="M1385.93 365.5C1452.41 365.5 1490.86 324.272 1490.86 256.091C1490.86 188.229 1452.41 147.321 1388.17 147.321L1315.3 147.321L1315.3 365.5L1385.93 365.5ZM1348.22 336.736L1348.22 176.085L1386.14 176.085C1433.87 176.085 1458.48 204.635 1458.48 256.091C1458.48 307.759 1433.87 336.736 1384.12 336.736L1348.22 336.736Z"/>
<path d="M1531.78 365.5L1564.69 365.5L1564.69 288.796L1609.44 288.796C1660.04 288.796 1685.08 258.221 1685.08 217.952C1685.08 177.789 1660.25 147.321 1609.54 147.321L1531.78 147.321L1531.78 365.5ZM1564.69 260.885L1564.69 175.552L1606.03 175.552C1638.63 175.552 1651.94 193.236 1651.94 217.952C1651.94 242.668 1638.63 260.885 1606.45 260.885L1564.69 260.885Z"/>
</g>
</g>
</g>
</svg>
